<?xml version="1.0" standalone="no"?>
<!DOCTYPE svg PUBLIC "-//W3C//DTD SVG 20010904//EN"
 "http://www.w3.org/TR/2001/REC-SVG-20010904/DTD/svg10.dtd">
<svg version="1.0" xmlns="http://www.w3.org/2000/svg"
 width="439.000000pt" height="512.000000pt" viewBox="0 0 439.000000 512.000000"
 preserveAspectRatio="xMidYMid meet">
<metadata>
Created by potrace 1.15, written by Peter Selinger 2001-2017
</metadata>
<g transform="translate(0.000000,512.000000) scale(0.100000,-0.100000)"
fill="#000000" stroke="none">
<path d="M2068 4792 c-146 -181 -276 -344 -287 -363 -25 -41 -26 -77 -3 -106
21 -26 84 -53 123 -53 l29 0 0 -220 0 -220 -34 -14 c-41 -17 -60 -47 -54 -87
4 -23 0 -29 -19 -34 -49 -12 -63 -39 -63 -119 l0 -74 95 -76 c110 -89 105 -71
80 -271 -14 -117 -26 -222 -66 -585 -18 -165 -35 -321 -79 -715 -30 -271 -58
-516 -79 -715 -12 -102 -25 -219 -31 -260 -5 -41 -10 -82 -10 -91 0 -10 -11
-19 -27 -22 -16 -4 -42 -15 -60 -26 -28 -17 -37 -35 -74 -150 -42 -128 -43
-131 -75 -137 -30 -5 -41 0 -108 55 -75 61 -165 160 -213 233 -30 44 -36 46
-50 15 -20 -43 -114 -147 -187 -207 -138 -114 -272 -197 -467 -289 -121 -57
-329 -138 -377 -147 -55 -10 -35 -25 26 -18 296 31 623 95 837 165 128 41 238
41 336 -1 38 -16 102 -36 142 -45 103 -23 348 -29 475 -12 56 7 102 12 102 10
0 -8 -150 -73 -226 -98 -78 -26 -231 -65 -309 -80 l-40 -8 30 -8 c17 -5 111
-12 210 -15 181 -7 346 5 388 27 15 8 29 7 60 -8 45 -20 76 -20 600 -10 193 4
289 11 341 22 68 15 75 15 117 -2 63 -26 277 -25 417 1 56 11 102 23 102 26 0
4 -42 10 -92 13 -98 7 -228 42 -308 82 -55 28 -146 108 -155 136 -6 19 -10 17
-40 -18 -55 -65 -190 -127 -390 -181 -174 -47 -310 -33 -460 46 l-40 21 42 1
c125 1 410 65 528 119 120 55 147 64 208 68 63 5 73 3 155 -35 116 -54 228
-81 377 -92 200 -14 511 14 499 45 -4 8 -22 9 -72 2 -134 -20 -304 18 -442 99
-102 60 -102 60 -29 68 35 3 114 13 175 22 106 15 114 14 190 -5 111 -28 206
-35 299 -22 97 14 122 31 45 31 -66 0 -170 25 -230 55 -59 30 -141 103 -165
149 -21 38 -35 46 -35 21 0 -30 -95 -112 -172 -149 -87 -42 -170 -69 -179 -58
-3 4 -16 34 -29 67 -70 183 -86 212 -142 241 -15 8 -38 14 -51 14 -23 0 -24 5
-35 93 -7 50 -23 178 -37 282 -36 267 -62 466 -85 640 -11 83 -29 219 -40 302
-11 84 -29 219 -40 300 -10 82 -28 216 -39 298 -11 83 -27 204 -36 270 -8 66
-23 173 -32 238 l-17 118 88 88 87 87 -3 90 -3 89 -32 15 c-28 13 -33 20 -33
50 0 46 -22 76 -65 90 l-35 12 0 203 0 203 41 16 c83 34 109 88 70 151 -14 24
-238 310 -510 652 -14 18 -28 33 -32 33 -3 0 -125 -148 -271 -328z m397 -72
c47 -93 85 -172 85 -174 0 -5 -72 4 -78 10 -2 1 -23 67 -46 146 -24 79 -46
153 -50 166 -19 57 11 8 89 -148z m115 -285 c52 -8 126 -25 164 -36 l69 -20
-36 -25 c-34 -23 -37 -23 -77 -9 -176 62 -482 60 -692 -5 -61 -19 -68 -19
-103 -4 -21 8 -34 19 -29 24 5 4 45 18 89 30 204 57 434 74 615 45z m-132
-101 l22 -6 -2 -212 -3 -211 -135 -7 c-109 -6 -248 -19 -314 -31 -8 -1 -12 64
-14 200 -3 231 -12 210 98 238 108 28 293 43 348 29z m215 -40 l27 -15 0 -199
c0 -109 -4 -201 -9 -204 -5 -3 -34 -1 -65 5 l-56 12 0 218 0 217 38 -10 c20
-6 49 -17 65 -24z m-36 -479 c148 -19 153 -21 153 -49 l0 -23 -72 14 c-182 34
-489 34 -673 -2 -44 -8 -81 -15 -82 -15 -2 0 -3 9 -3 20 0 21 29 32 140 49
105 17 118 18 272 20 83 0 198 -6 265 -14z m-77 -95 c100 -9 237 -30 293 -46
13 -4 17 -16 17 -56 l0 -51 -42 7 c-123 20 -199 27 -363 33 -208 7 -371 -7
-515 -43 -52 -13 -98 -24 -102 -24 -5 0 -8 23 -8 50 0 60 -1 59 160 96 178 40
361 51 560 34z m57 -370 l41 -12 11 -81 c11 -79 19 -142 62 -496 11 -90 18
-165 17 -167 -2 -1 -24 2 -48 9 -28 7 -135 11 -285 11 -212 0 -252 -2 -344
-22 -57 -13 -106 -21 -108 -18 -3 3 2 76 11 163 9 87 26 255 38 373 11 118 26
218 31 222 6 3 49 12 96 18 47 7 93 13 101 15 34 8 338 -4 377 -15z m97 -987
c10 -65 26 -216 26 -252 0 -33 0 -33 -37 -26 -21 4 -39 8 -41 9 -1 2 -7 52
-12 112 -5 60 -12 128 -15 152 l-6 42 40 0 c38 0 39 -1 45 -37z m-82 -498 c62
-8 136 -21 163 -27 l50 -13 16 -125 c29 -214 96 -708 106 -775 l5 -40 -68 67
c-78 75 -157 128 -191 128 -28 0 -28 -2 -4 -71 10 -30 21 -72 25 -93 l7 -39
-140 6 c-237 10 -590 -16 -798 -59 -27 -5 -31 -4 -27 12 2 11 13 111 24 224
21 220 55 568 66 674 l7 65 107 26 c219 52 453 66 652 40z m347 -1115 c32 -41
77 -105 100 -142 75 -120 240 -252 385 -309 83 -33 64 -37 -70 -14 -83 15
-112 26 -251 100 -109 57 -279 40 -498 -49 -39 -16 -39 -16 -16 1 87 63 148
128 171 183 10 25 10 38 0 69 -10 32 -10 43 4 70 10 18 23 34 31 37 40 16 44
126 5 191 -11 19 -20 37 -20 41 1 11 96 -96 159 -178z m-1755 -277 c112 -104
227 -164 411 -214 l70 -19 -97 6 c-179 10 -370 69 -478 149 l-49 36 -69 -40
c-89 -54 -260 -117 -395 -148 -111 -25 -164 -27 -92 -3 149 48 408 221 539
359 l29 30 29 -44 c16 -25 62 -75 102 -112z m831 26 c64 -28 141 -49 183 -49
18 0 31 -4 28 -9 -11 -17 -223 13 -285 40 -43 19 -45 19 -95 0 -85 -32 -427
-76 -413 -54 4 6 35 13 71 17 148 15 329 81 363 132 l16 25 41 -40 c23 -22 63
-50 91 -62z m12 -95 c96 -18 165 -18 327 2 157 19 179 26 106 34 -47 6 -41 7
43 8 53 1 97 -2 97 -7 0 -21 -116 -111 -194 -150 -89 -45 -207 -85 -278 -96
-42 -6 -46 -5 -75 29 -17 19 -36 43 -42 53 -10 17 -12 16 -34 -11 -23 -28 -26
-29 -84 -23 -108 11 -267 62 -378 120 l-50 26 97 1 c94 0 280 29 315 49 12 6
26 5 46 -5 16 -9 62 -22 104 -30z m1120 -284 c26 -12 86 -31 133 -40 50 -11
72 -18 53 -19 -55 -2 -185 20 -236 39 -44 17 -53 17 -86 5 -50 -20 -203 -45
-265 -44 -50 1 -49 1 34 19 113 23 209 63 240 98 l25 29 27 -32 c15 -18 49
-43 75 -55z m-983 -41 c97 -28 99 -30 32 -24 -32 3 -91 16 -130 29 -51 17 -76
21 -89 14 -32 -17 -216 -48 -280 -47 l-62 0 113 24 c118 24 215 64 234 95 11
17 16 15 61 -26 37 -33 67 -49 121 -65z"/>
<path d="M2105 3108 c-3 -11 -24 -321 -21 -324 1 -1 19 1 41 5 39 6 40 7 47
56 3 28 7 101 7 163 l1 112 -35 0 c-20 0 -38 -6 -40 -12z"/>
<path d="M1978 1443 c-10 -2 -18 -8 -18 -11 0 -4 -7 -70 -15 -147 -8 -77 -15
-146 -15 -153 0 -9 13 -12 42 -10 43 3 43 3 49 48 4 25 10 98 14 163 l7 117
-24 -1 c-12 -1 -31 -3 -40 -6z"/>
<path d="M2490 1330 c-11 -11 -20 -26 -20 -33 0 -21 34 -47 76 -58 20 -6 50
-24 66 -40 35 -35 38 -35 38 -6 0 113 -99 198 -160 137z"/>
<path d="M2442 1055 c-34 -44 -9 -98 44 -93 17 1 39 -3 47 -10 16 -14 91 -2
110 17 21 21 0 40 -37 34 -34 -5 -36 -4 -36 21 0 19 -5 26 -19 26 -10 0 -21 7
-25 15 -9 25 -62 18 -84 -10z"/>
<path d="M3465 4429 c-38 -17 -79 -34 -90 -39 -46 -21 -262 -108 -282 -114
-25 -8 -30 -33 -10 -59 11 -14 35 -3 234 106 122 67 225 125 229 130 14 14
-11 6 -81 -24z"/>
<path d="M3090 4084 c0 -32 2 -34 33 -34 85 0 464 23 482 29 11 5 -81 13 -205
20 -124 6 -244 13 -267 15 -43 4 -43 3 -43 -30z"/>
<path d="M3076 3924 c-4 -15 -3 -30 1 -34 4 -4 51 -24 103 -45 52 -21 118 -48
145 -60 28 -12 77 -32 110 -45 33 -13 71 -30 85 -37 13 -7 26 -10 29 -8 6 7 7
6 -79 52 -41 22 -141 77 -223 122 -81 44 -151 81 -156 81 -5 0 -12 -12 -15
-26z"/>
<path d="M330 2496 c0 -2 20 -14 45 -26 56 -27 121 -100 129 -145 7 -35 19
-44 31 -25 18 30 132 -1 204 -54 44 -33 50 -26 20 19 -39 57 -92 88 -160 93
-50 4 -59 7 -59 24 0 10 -12 30 -26 43 -34 32 -184 90 -184 71z"/>
<path d="M1160 2409 c94 -25 111 -31 139 -55 18 -15 33 -39 37 -60 l6 -35 30
28 c26 25 36 28 91 27 43 -1 79 -9 120 -27 31 -14 57 -23 57 -19 -1 12 -85 70
-125 86 -46 19 -95 20 -119 3 -16 -12 -22 -10 -45 14 -34 34 -88 49 -166 48
-56 -1 -58 -1 -25 -10z"/>
<path d="M3468 2220 c35 -16 78 -41 95 -56 40 -33 77 -92 77 -121 0 -28 5 -28
37 -3 14 11 41 20 59 20 40 0 134 -34 187 -67 22 -14 41 -22 44 -20 2 3 -12
23 -32 46 -45 50 -124 89 -194 98 -46 5 -60 12 -96 49 -32 32 -60 48 -110 63
-37 12 -81 21 -99 21 -28 -1 -25 -4 32 -30z"/>
<path d="M962 1980 c-50 -10 -104 -41 -130 -74 -13 -17 -23 -21 -37 -15 -32
12 -98 10 -149 -5 -61 -19 -186 -79 -186 -90 0 -4 8 -5 18 -1 58 25 124 36
200 32 73 -3 87 -7 127 -35 51 -36 53 -37 52 -19 -1 40 6 60 33 90 41 47 116
77 214 86 l81 7 -40 11 c-61 17 -135 22 -183 13z"/>
<path d="M3673 1698 c-35 -6 -63 -14 -63 -18 0 -4 37 -10 83 -12 127 -7 213
-54 258 -140 10 -21 19 -45 19 -55 0 -13 9 -7 31 20 45 54 95 77 172 77 61 0
168 -32 203 -61 9 -7 14 -8 14 -1 0 17 -97 82 -152 103 -72 26 -135 24 -203
-5 -30 -14 -55 -21 -55 -16 0 5 -12 23 -27 41 -53 62 -158 87 -280 67z"/>
</g>
</svg>
